<svg class="logo-header" height="63.8px" style="enable-background:new 0 0 230 63.8;" version="1.1" viewBox="0 0 230 63.8" width="230px" x="0px" xml:space="preserve" xmlns="http://www.w3.org/2000/svg" xmlns:xlink="http://www.w3.org/1999/xlink" y="0px">
<g>
<g>
<path class="st0" d="M128.5,14.8c-1.5-3.4-0.4-7.8,3-8.1c0.8-0.1,1.6,0.6,2.5,0.6c1.6,0.1,3.1-0.8,4-0.7c1.9,0.1,3,1.4,4.9,2.3
c2.1,1,4.3,1.3,5.6,2.4c3.6,3,5.3,8.6,3.4,12.2c-1.5,2.9-5.2,6-10,6.1c-1.1,1-1.2,2.4-2.3,3c-6.1,3.8-11.5-5-13-8.7
C125.3,21.1,125.6,16.2,128.5,14.8z"></path>
<path class="st0" d="M142.6,31.2c0.4,0.1,0.7,0.4,0.6,0.8c-0.1,0.4-0.4,0.6-0.8,0.5c-0.4-0.1-0.7-0.4-0.6-0.8
C141.8,31.3,142.2,31.1,142.6,31.2z"></path>
</g>
<g>
<path class="st1" d="M20.3,16c-1.4-1.3-3.3-2-5.8-2c-1.8,0-3.3,0.4-4.7,1.1c-1.3,0.8-2.5,1.7-3.4,3c-0.9,1.2-1.6,2.6-2,4.2
c-0.5,1.6-0.7,3.2-0.7,4.8c0,1.6,0.2,3.2,0.7,4.8c0.5,1.6,1.1,3,2,4.2c0.9,1.2,2,2.2,3.4,3c1.3,0.8,2.9,1.1,4.7,1.1
c1.2,0,2.2-0.2,3.3-0.7c1-0.4,1.9-1,2.7-1.8c0.8-0.8,1.4-1.7,2-2.8c0.5-1.1,0.8-2.2,1-3.5h3.7c-0.5,3.7-1.9,6.6-4.1,8.7
c-2.2,2.1-5.1,3.1-8.6,3.1c-2.3,0-4.4-0.4-6.2-1.3c-1.8-0.9-3.3-2-4.5-3.5C2.5,37,1.6,35.3,1,33.4c-0.6-2-1-4.1-1-6.3
s0.3-4.3,1-6.3c0.6-2,1.6-3.7,2.8-5.1c1.2-1.5,2.7-2.6,4.5-3.5c1.8-0.9,3.9-1.3,6.2-1.3c3.3,0,6.1,0.9,8.4,2.6
c2.3,1.7,3.6,4.4,4.1,7.9h-3.7C22.7,19.1,21.7,17.3,20.3,16z"></path>
<path class="st1" d="M35.2,32.3c0.4,1.4,1,2.7,1.8,3.9c0.8,1.1,1.9,2.1,3.2,2.9c1.3,0.8,2.8,1.1,4.6,1.1c2.7,0,4.9-0.7,6.4-2.1
c1.5-1.4,2.6-3.3,3.2-5.7h3.7c-0.8,3.5-2.2,6.2-4.4,8.1c-2.1,1.9-5.1,2.9-9,2.9c-2.4,0-4.5-0.4-6.3-1.3c-1.8-0.9-3.2-2-4.3-3.5
c-1.1-1.5-1.9-3.2-2.5-5.2c-0.5-2-0.8-4-0.8-6.2c0-2,0.3-4,0.8-5.9c0.5-1.9,1.4-3.7,2.5-5.2c1.1-1.5,2.5-2.8,4.3-3.7
c1.8-0.9,3.9-1.4,6.3-1.4c2.5,0,4.6,0.5,6.3,1.5c1.7,1,3.2,2.3,4.2,3.9c1.1,1.6,1.9,3.4,2.3,5.5c0.5,2.1,0.7,4.2,0.6,6.3H34.6
C34.6,29.5,34.8,30.9,35.2,32.3z M53.7,20.9c-0.5-1.3-1.1-2.5-1.9-3.5c-0.8-1-1.8-1.8-3-2.4c-1.2-0.6-2.5-0.9-4-0.9
c-1.5,0-2.9,0.3-4.1,0.9c-1.2,0.6-2.2,1.4-3,2.4c-0.8,1-1.5,2.2-2,3.5c-0.5,1.3-0.8,2.7-1,4.1h19.9C54.4,23.5,54.2,22.2,53.7,20.9
z"></path>
<path class="st1" d="M66.7,11.8V19h0.1c1-2.5,2.4-4.4,4.4-5.8c2-1.3,4.4-2,7.2-1.8v3.7c-1.7-0.1-3.2,0.1-4.6,0.7
c-1.4,0.5-2.6,1.3-3.6,2.3c-1,1-1.8,2.2-2.3,3.5C67.3,23,67,24.5,67,26.1v16.3h-3.7V11.8L66.7,11.8L66.7,11.8z"></path>
<path class="st1" d="M103.4,42.4v-5.5h-0.1c-1,2.1-2.4,3.6-4.3,4.7c-1.9,1.1-4,1.6-6.3,1.6c-1.9,0-3.6-0.3-5-0.8
c-1.4-0.5-2.5-1.3-3.3-2.3c-0.9-1-1.5-2.2-1.9-3.6c-0.4-1.4-0.6-3-0.6-4.9V11.8h3.7v20c0.1,2.8,0.7,4.9,1.9,6.3
c1.2,1.4,3.3,2.1,6.3,2.1c1.6,0,3-0.3,4.2-1c1.1-0.7,2.1-1.6,2.9-2.8c0.8-1.1,1.3-2.5,1.7-4c0.4-1.5,0.5-3,0.5-4.5V11.8h3.7v30.7
H103.4z"></path>
<path class="st1" d="M117.7,0v42.4h-3.7V0H117.7z"></path>
<path class="st1" d="M127.6,32.3c0.4,1.4,1,2.7,1.8,3.9c0.8,1.1,1.9,2.1,3.2,2.9c1.3,0.8,2.8,1.1,4.6,1.1c2.7,0,4.9-0.7,6.4-2.1
c1.5-1.4,2.6-3.3,3.2-5.7h3.7c-0.8,3.5-2.2,6.2-4.4,8.1c-2.1,1.9-5.1,2.9-9,2.9c-2.4,0-4.5-0.4-6.3-1.3c-1.8-0.9-3.2-2-4.3-3.5
c-1.1-1.5-1.9-3.2-2.5-5.2c-0.5-2-0.8-4-0.8-6.2c0-2,0.3-4,0.8-5.9c0.5-1.9,1.4-3.7,2.5-5.2c1.1-1.5,2.5-2.8,4.3-3.7
c1.8-0.9,3.9-1.4,6.3-1.4c2.5,0,4.6,0.5,6.3,1.5c1.7,1,3.2,2.3,4.2,3.9c1.1,1.6,1.9,3.4,2.3,5.5c0.5,2.1,0.7,4.2,0.6,6.3h-23.6
C127.1,29.5,127.3,30.9,127.6,32.3z M146.2,20.9c-0.5-1.3-1.1-2.5-1.9-3.5c-0.8-1-1.8-1.8-3-2.4c-1.2-0.6-2.5-0.9-4-0.9
c-1.5,0-2.9,0.3-4.1,0.9c-1.2,0.6-2.2,1.4-3,2.4c-0.8,1-1.5,2.2-2,3.5c-0.5,1.3-0.8,2.7-1,4.1h19.9
C146.9,23.5,146.6,22.2,146.2,20.9z"></path>
<path class="st1" d="M177.1,42.4v-5.5H177c-1,2.1-2.4,3.6-4.3,4.7c-1.9,1.1-4,1.6-6.3,1.6c-1.9,0-3.6-0.3-5-0.8
c-1.4-0.5-2.5-1.3-3.3-2.3c-0.9-1-1.5-2.2-1.9-3.6c-0.4-1.4-0.6-3-0.6-4.9V11.8h3.7v20c0.1,2.8,0.7,4.9,1.9,6.3
c1.2,1.4,3.3,2.1,6.3,2.1c1.6,0,3-0.3,4.2-1c1.1-0.7,2.1-1.6,2.9-2.8c0.8-1.1,1.3-2.5,1.7-4c0.4-1.5,0.5-3,0.5-4.5V11.8h3.7v30.7
H177.1z"></path>
<path class="st1" d="M191.1,11.8v5.2h0.2c1-1.9,2.3-3.4,3.9-4.5c1.6-1.1,3.7-1.6,6.2-1.6c2,0,3.9,0.5,5.5,1.5
c1.6,1,2.7,2.5,3.3,4.5c0.9-2,2.3-3.5,4-4.5c1.8-1,3.7-1.5,5.7-1.5c6.8,0,10.2,3.6,10.2,10.8v20.8h-3.7V21.8
c0-2.5-0.5-4.5-1.6-5.8c-1.1-1.3-3-2-5.6-2c-1.6,0-3,0.3-4,0.9c-1.1,0.6-1.9,1.4-2.6,2.5c-0.6,1-1.1,2.2-1.3,3.5
c-0.3,1.3-0.4,2.7-0.4,4.1v17.4h-3.7V21.6c0-1-0.1-2-0.3-2.9c-0.2-0.9-0.6-1.7-1.1-2.4c-0.5-0.7-1.2-1.2-2-1.6
c-0.8-0.4-1.8-0.6-3-0.6c-1.6,0-3,0.3-4.1,0.9c-1.2,0.6-2.1,1.4-2.9,2.4c-0.7,1-1.3,2.2-1.6,3.6c-0.4,1.4-0.5,2.9-0.5,4.5v17.1
h-3.7V11.8L191.1,11.8z"></path>
</g>
<g>
<path class="st1" d="M0.7,63.1C0.3,62.6,0,61.8,0,60.9l1.5-0.3c0,0.6,0.1,1.1,0.3,1.4c0.2,0.3,0.4,0.5,0.8,0.5
c0.3,0,0.5-0.1,0.6-0.2c0.1-0.2,0.2-0.4,0.2-0.7c0-0.4-0.1-0.7-0.3-1C3,60.3,2.7,60,2.4,59.7l-1.2-1.1c-0.4-0.3-0.7-0.7-0.8-1
C0.1,57.2,0,56.8,0,56.3c0-0.8,0.2-1.3,0.7-1.8c0.4-0.4,1.1-0.6,1.8-0.6c0.8,0,1.4,0.2,1.8,0.7c0.4,0.5,0.6,1.1,0.6,1.9l-1.5,0.3
c0-0.5-0.1-0.9-0.2-1.2c-0.1-0.3-0.4-0.4-0.7-0.4c-0.3,0-0.5,0.1-0.6,0.3s-0.2,0.4-0.2,0.6c0,0.3,0.1,0.6,0.2,0.8
c0.1,0.2,0.3,0.4,0.6,0.7l1.2,1.1c0.5,0.4,0.8,0.8,1.1,1.3c0.3,0.4,0.4,1,0.4,1.6c0,0.5-0.1,0.9-0.3,1.2c-0.2,0.4-0.5,0.6-0.9,0.8
c-0.4,0.2-0.8,0.3-1.3,0.3C1.8,63.8,1.1,63.6,0.7,63.1z"></path>
<path class="st1" d="M6.6,63C6.2,62.4,6,61.6,6,60.6v-3.4c0-1.1,0.2-1.9,0.6-2.4c0.4-0.5,1.1-0.8,2.1-0.8c0.9,0,1.6,0.2,2,0.7
c0.4,0.5,0.6,1.2,0.6,2.1v0.8H9.7v-0.8c0-0.3,0-0.6,0-0.8c0-0.2-0.1-0.4-0.2-0.5c-0.1-0.1-0.3-0.2-0.6-0.2c-0.3,0-0.5,0.1-0.6,0.2
s-0.2,0.3-0.3,0.5c0,0.2-0.1,0.5-0.1,0.9v4.2c0,0.5,0.1,0.9,0.2,1.2c0.1,0.2,0.4,0.4,0.8,0.4c0.3,0,0.5-0.1,0.6-0.2
c0.1-0.1,0.2-0.3,0.3-0.5c0-0.2,0.1-0.5,0.1-0.8v-0.9h1.7v0.8c0,0.9-0.2,1.7-0.6,2.2c-0.4,0.5-1.1,0.8-2,0.8
C7.7,63.8,7,63.5,6.6,63z"></path>
<path class="st1" d="M12.6,54h1.8v4h2v-4h1.8v9.7h-1.8v-4.4h-2v4.4h-1.8V54z"></path>
<path class="st1" d="M20.1,63c-0.4-0.5-0.6-1.3-0.6-2.4V57c0-1,0.2-1.8,0.6-2.3c0.4-0.5,1.1-0.8,2.1-0.8c1,0,1.7,0.3,2.1,0.8
C24.8,55.2,25,56,25,57v3.6c0,1-0.2,1.8-0.7,2.4c-0.4,0.5-1.1,0.8-2.1,0.8C21.2,63.8,20.5,63.5,20.1,63z M23,62.1
c0.1-0.2,0.2-0.6,0.2-1.1v-4.5c0-0.5-0.1-0.8-0.2-1.1c-0.1-0.2-0.4-0.4-0.8-0.4c-0.4,0-0.7,0.1-0.8,0.4c-0.1,0.2-0.2,0.6-0.2,1.1
v4.5c0,0.5,0.1,0.8,0.2,1.1c0.1,0.2,0.4,0.4,0.8,0.4C22.6,62.5,22.9,62.4,23,62.1z"></path>
<path class="st1" d="M26.8,63c-0.4-0.5-0.6-1.3-0.6-2.4V57c0-1,0.2-1.8,0.6-2.3c0.4-0.5,1.1-0.8,2.1-0.8c1,0,1.7,0.3,2.1,0.8
c0.4,0.5,0.6,1.3,0.6,2.3v3.6c0,1-0.2,1.8-0.7,2.4c-0.4,0.5-1.1,0.8-2.1,0.8C27.9,63.8,27.2,63.5,26.8,63z M29.7,62.1
c0.1-0.2,0.2-0.6,0.2-1.1v-4.5c0-0.5-0.1-0.8-0.2-1.1c-0.1-0.2-0.4-0.4-0.8-0.4c-0.4,0-0.7,0.1-0.8,0.4c-0.1,0.2-0.2,0.6-0.2,1.1
v4.5c0,0.5,0.1,0.8,0.2,1.1c0.1,0.2,0.4,0.4,0.8,0.4C29.3,62.5,29.6,62.4,29.7,62.1z"></path>
<path class="st1" d="M33,54h1.8v8.5h2.4v1.2H33V54z"></path>
<path class="st1" d="M41.4,63c-0.4-0.5-0.6-1.3-0.6-2.4V57c0-1,0.2-1.8,0.6-2.3c0.4-0.5,1.1-0.8,2.1-0.8c1,0,1.7,0.3,2.1,0.8
c0.4,0.5,0.6,1.3,0.6,2.3v3.6c0,1-0.2,1.8-0.7,2.4s-1.1,0.8-2.1,0.8C42.6,63.8,41.9,63.5,41.4,63z M44.4,62.1
c0.1-0.2,0.2-0.6,0.2-1.1v-4.5c0-0.5-0.1-0.8-0.2-1.1c-0.1-0.2-0.4-0.4-0.8-0.4c-0.4,0-0.7,0.1-0.8,0.4c-0.1,0.2-0.2,0.6-0.2,1.1
v4.5c0,0.5,0.1,0.8,0.2,1.1c0.1,0.2,0.4,0.4,0.8,0.4C44,62.5,44.2,62.4,44.4,62.1z"></path>
<path class="st1" d="M47.7,54h4v1.2h-2.2V58h1.8v1.2h-1.8v4.4h-1.8V54z"></path>
<path class="st1" d="M55,54h1.6l1.3,6.8l1.2-6.8h1.6l-1.9,9.7H57L55,54z"></path>
<path class="st1" d="M61.7,54h1.7v9.7h-1.7V54z"></path>
<path class="st1" d="M65.4,63.1c-0.4-0.5-0.7-1.2-0.7-2.2l1.5-0.3c0,0.6,0.1,1.1,0.3,1.4c0.2,0.3,0.4,0.5,0.8,0.5
c0.3,0,0.5-0.1,0.6-0.2c0.1-0.2,0.2-0.4,0.2-0.7c0-0.4-0.1-0.7-0.3-1c-0.2-0.3-0.4-0.6-0.8-0.9l-1.2-1.1c-0.4-0.3-0.7-0.7-0.8-1
c-0.2-0.4-0.3-0.8-0.3-1.3c0-0.8,0.2-1.3,0.7-1.8c0.4-0.4,1.1-0.6,1.8-0.6c0.8,0,1.4,0.2,1.8,0.7c0.4,0.5,0.6,1.1,0.6,1.9
l-1.5,0.3c0-0.5-0.1-0.9-0.2-1.2c-0.1-0.3-0.4-0.4-0.7-0.4c-0.3,0-0.5,0.1-0.6,0.3c-0.1,0.2-0.2,0.4-0.2,0.6
c0,0.3,0.1,0.6,0.2,0.8c0.1,0.2,0.3,0.4,0.6,0.7l1.2,1.1c0.5,0.4,0.8,0.8,1.1,1.3c0.3,0.4,0.4,1,0.4,1.6c0,0.5-0.1,0.9-0.3,1.2
c-0.2,0.4-0.5,0.6-0.9,0.8c-0.4,0.2-0.8,0.3-1.3,0.3C66.5,63.8,65.8,63.6,65.4,63.1z"></path>
<path class="st1" d="M71.8,63.4c-0.4-0.3-0.7-0.6-0.8-1.1c-0.2-0.5-0.2-1.1-0.2-1.8V54h1.7v6.7c0,0.6,0.1,1,0.2,1.3
c0.1,0.3,0.4,0.5,0.8,0.5c0.4,0,0.7-0.2,0.8-0.5c0.1-0.3,0.2-0.7,0.2-1.3V54h1.7v6.5c0,0.7-0.1,1.3-0.2,1.8
c-0.2,0.5-0.4,0.8-0.8,1.1c-0.4,0.3-0.9,0.4-1.6,0.4C72.8,63.8,72.2,63.7,71.8,63.4z"></path>
<path class="st1" d="M79,54h1.9l1.9,9.7h-1.6l-0.4-2.2h-1.7l-0.4,2.2H77L79,54z M80.6,60.3l-0.7-4.1l-0.7,4.1H80.6z"></path>
<path class="st1" d="M83.8,54h1.8v8.5h2.4v1.2h-4.1V54z"></path>
<path class="st1" d="M93.1,54H95l1.9,9.7h-1.6l-0.4-2.2h-1.7l-0.4,2.2h-1.7L93.1,54z M94.7,60.3l-0.7-4.1l-0.7,4.1H94.7z"></path>
<path class="st1" d="M97.9,54h2.3c1,0,1.8,0.2,2.3,0.6c0.5,0.4,0.8,1,0.8,2c0,0.6-0.1,1.1-0.3,1.5c-0.2,0.4-0.5,0.7-0.9,0.8
l1.3,4.8h-1.8l-1.2-4.4h-0.8v4.4h-1.8V54z M100.2,58.1c0.5,0,0.9-0.1,1.1-0.3c0.2-0.2,0.3-0.6,0.3-1.1c0-0.5-0.1-0.9-0.3-1.1
c-0.2-0.2-0.5-0.3-1-0.3h-0.7v2.9H100.2z"></path>
<path class="st1" d="M105.5,55.3H104V54h4.8v1.3h-1.5v8.4h-1.8V55.3z"></path>
<path class="st1" d="M110.2,63.1c-0.4-0.5-0.7-1.2-0.7-2.2l1.5-0.3c0,0.6,0.1,1.1,0.3,1.4c0.2,0.3,0.4,0.5,0.8,0.5
c0.3,0,0.5-0.1,0.6-0.2c0.1-0.2,0.2-0.4,0.2-0.7c0-0.4-0.1-0.7-0.3-1c-0.2-0.3-0.4-0.6-0.8-0.9l-1.2-1.1c-0.4-0.3-0.7-0.7-0.8-1
c-0.2-0.4-0.3-0.8-0.3-1.3c0-0.8,0.2-1.3,0.7-1.8c0.4-0.4,1.1-0.6,1.8-0.6c0.8,0,1.4,0.2,1.8,0.7c0.4,0.5,0.6,1.1,0.6,1.9
l-1.5,0.3c0-0.5-0.1-0.9-0.2-1.2c-0.1-0.3-0.4-0.4-0.7-0.4c-0.3,0-0.5,0.1-0.6,0.3c-0.1,0.2-0.2,0.4-0.2,0.6
c0,0.3,0.1,0.6,0.2,0.8c0.1,0.2,0.3,0.4,0.6,0.7l1.2,1.1c0.5,0.4,0.8,0.8,1.1,1.3c0.3,0.4,0.4,1,0.4,1.6c0,0.5-0.1,0.9-0.3,1.2
c-0.2,0.4-0.5,0.6-0.9,0.8c-0.4,0.2-0.8,0.3-1.3,0.3C111.2,63.8,110.6,63.6,110.2,63.1z"></path>
<path class="st1" d="M118.4,59.2h2.9v1.1h-2.9V59.2z"></path>
<path class="st1" d="M125.6,54h4.1v1.2h-2.3V58h1.8v1.2h-1.8v3.2h2.3v1.2h-4.1V54z M127.9,50.9h1.6l-1.4,2.4h-0.9L127.9,50.9z"></path>
<path class="st1" d="M131.2,63c-0.4-0.6-0.6-1.4-0.6-2.4v-3.4c0-1.1,0.2-1.9,0.6-2.4c0.4-0.5,1.1-0.8,2.1-0.8c0.9,0,1.6,0.2,2,0.7
c0.4,0.5,0.6,1.2,0.6,2.1v0.8h-1.7v-0.8c0-0.3,0-0.6,0-0.8c0-0.2-0.1-0.4-0.2-0.5c-0.1-0.1-0.3-0.2-0.6-0.2
c-0.3,0-0.5,0.1-0.6,0.2s-0.2,0.3-0.3,0.5c0,0.2-0.1,0.5-0.1,0.9v4.2c0,0.5,0.1,0.9,0.2,1.2s0.4,0.4,0.8,0.4
c0.3,0,0.5-0.1,0.6-0.2c0.1-0.1,0.2-0.3,0.3-0.5c0-0.2,0.1-0.5,0.1-0.8v-0.9h1.7v0.8c0,0.9-0.2,1.7-0.6,2.2
c-0.4,0.5-1.1,0.8-2,0.8C132.3,63.8,131.6,63.5,131.2,63z"></path>
<path class="st1" d="M137.7,63c-0.4-0.5-0.6-1.3-0.6-2.4V57c0-1,0.2-1.8,0.6-2.3c0.4-0.5,1.1-0.8,2.1-0.8c1,0,1.7,0.3,2.1,0.8
c0.4,0.5,0.6,1.3,0.6,2.3v3.6c0,1-0.2,1.8-0.7,2.4s-1.1,0.8-2.1,0.8C138.8,63.8,138.1,63.5,137.7,63z M140.6,62.1
c0.1-0.2,0.2-0.6,0.2-1.1v-4.5c0-0.5-0.1-0.8-0.2-1.1c-0.1-0.2-0.4-0.4-0.8-0.4c-0.4,0-0.7,0.1-0.8,0.4c-0.1,0.2-0.2,0.6-0.2,1.1
v4.5c0,0.5,0.1,0.8,0.2,1.1c0.1,0.2,0.4,0.4,0.8,0.4C140.2,62.5,140.5,62.4,140.6,62.1z"></path>
<path class="st1" d="M143.9,54h1.8v8.5h2.4v1.2h-4.1V54z"></path>
<path class="st1" d="M148.9,54h4.1v1.2h-2.3V58h1.8v1.2h-1.8v3.2h2.3v1.2h-4.1V54z"></path>
<path class="st1" d="M156.9,54h2.3c0.8,0,1.4,0.1,1.8,0.3c0.4,0.2,0.8,0.5,0.9,1c0.2,0.4,0.3,1,0.3,1.7v3.5c0,0.7-0.1,1.3-0.3,1.8
c-0.2,0.5-0.5,0.8-0.9,1c-0.4,0.2-1,0.3-1.8,0.3h-2.4V54z M159.2,62.4c0.4,0,0.7-0.1,0.8-0.2c0.2-0.1,0.3-0.3,0.3-0.6
c0-0.2,0.1-0.6,0.1-1.1v-3.7c0-0.4,0-0.8-0.1-1c-0.1-0.2-0.2-0.4-0.4-0.5c-0.2-0.1-0.5-0.2-0.8-0.2h-0.5v7.2H159.2z"></path>
<path class="st1" d="M163.6,56.7c0.3,0,0.4-0.1,0.5-0.3c0.1-0.2,0.1-0.5,0.1-0.9h-0.7V54h1.6v1.2c0,0.7-0.1,1.2-0.3,1.5
c-0.2,0.3-0.5,0.5-1,0.5L163.6,56.7z"></path>
<path class="st1" d="M167.6,54h1.9l1.9,9.7h-1.6l-0.4-2.2h-1.7l-0.4,2.2h-1.7L167.6,54z M169.2,60.3l-0.7-4.1l-0.7,4.1H169.2z"></path>
<path class="st1" d="M172.4,54h2.3c1,0,1.8,0.2,2.3,0.6c0.5,0.4,0.8,1,0.8,2c0,0.6-0.1,1.1-0.3,1.5c-0.2,0.4-0.5,0.7-0.9,0.8
l1.3,4.8h-1.8l-1.2-4.4h-0.8v4.4h-1.8V54z M174.7,58.1c0.5,0,0.9-0.1,1.1-0.3c0.2-0.2,0.3-0.6,0.3-1.1c0-0.5-0.1-0.9-0.3-1.1
c-0.2-0.2-0.5-0.3-1-0.3h-0.7v2.9H174.7z"></path>
<path class="st1" d="M180,55.3h-1.5V54h4.8v1.3h-1.5v8.4H180V55.3z"></path>
<path class="st1" d="M184.6,63.1c-0.4-0.5-0.7-1.2-0.7-2.2l1.5-0.3c0,0.6,0.1,1.1,0.3,1.4c0.2,0.3,0.4,0.5,0.8,0.5
c0.3,0,0.5-0.1,0.6-0.2c0.1-0.2,0.2-0.4,0.2-0.7c0-0.4-0.1-0.7-0.3-1c-0.2-0.3-0.4-0.6-0.8-0.9l-1.2-1.1c-0.4-0.3-0.7-0.7-0.8-1
c-0.2-0.4-0.3-0.8-0.3-1.3c0-0.8,0.2-1.3,0.7-1.8c0.4-0.4,1.1-0.6,1.8-0.6c0.8,0,1.4,0.2,1.8,0.7c0.4,0.5,0.6,1.1,0.6,1.9
l-1.5,0.3c0-0.5-0.1-0.9-0.2-1.2c-0.1-0.3-0.4-0.4-0.7-0.4c-0.3,0-0.5,0.1-0.6,0.3c-0.1,0.2-0.2,0.4-0.2,0.6
c0,0.3,0.1,0.6,0.2,0.8c0.1,0.2,0.3,0.4,0.6,0.7l1.2,1.1c0.5,0.4,0.8,0.8,1.1,1.3c0.3,0.4,0.4,1,0.4,1.6c0,0.5-0.1,0.9-0.3,1.2
c-0.2,0.4-0.5,0.6-0.9,0.8c-0.4,0.2-0.8,0.3-1.3,0.3C185.7,63.8,185.1,63.6,184.6,63.1z"></path>
<path class="st1" d="M192.5,54h1.6l1.3,6.8l1.2-6.8h1.6l-1.9,9.7h-1.7L192.5,54z"></path>
<path class="st1" d="M199.2,54h1.7v9.7h-1.7V54z"></path>
<path class="st1" d="M202.9,63.1c-0.4-0.5-0.7-1.2-0.7-2.2l1.5-0.3c0,0.6,0.1,1.1,0.3,1.4c0.2,0.3,0.4,0.5,0.8,0.5
c0.3,0,0.5-0.1,0.6-0.2c0.1-0.2,0.2-0.4,0.2-0.7c0-0.4-0.1-0.7-0.3-1c-0.2-0.3-0.4-0.6-0.8-0.9l-1.2-1.1c-0.4-0.3-0.7-0.7-0.8-1
c-0.2-0.4-0.3-0.8-0.3-1.3c0-0.8,0.2-1.3,0.7-1.8c0.4-0.4,1.1-0.6,1.8-0.6c0.8,0,1.4,0.2,1.8,0.7c0.4,0.5,0.6,1.1,0.6,1.9
l-1.5,0.3c0-0.5-0.1-0.9-0.2-1.2c-0.1-0.3-0.4-0.4-0.7-0.4c-0.3,0-0.5,0.1-0.6,0.3c-0.1,0.2-0.2,0.4-0.2,0.6
c0,0.3,0.1,0.6,0.2,0.8c0.1,0.2,0.3,0.4,0.6,0.7l1.2,1.1c0.5,0.4,0.8,0.8,1.1,1.3c0.3,0.4,0.4,1,0.4,1.6c0,0.5-0.1,0.9-0.3,1.2
c-0.2,0.4-0.5,0.6-0.9,0.8c-0.4,0.2-0.8,0.3-1.3,0.3C204,63.8,203.3,63.6,202.9,63.1z"></path>
<path class="st1" d="M209.3,63.4c-0.4-0.3-0.7-0.6-0.8-1.1c-0.2-0.5-0.2-1.1-0.2-1.8V54h1.7v6.7c0,0.6,0.1,1,0.2,1.3
c0.1,0.3,0.4,0.5,0.8,0.5c0.4,0,0.7-0.2,0.8-0.5c0.1-0.3,0.2-0.7,0.2-1.3V54h1.7v6.5c0,0.7-0.1,1.3-0.2,1.8
c-0.2,0.5-0.4,0.8-0.8,1.1c-0.4,0.3-0.9,0.4-1.6,0.4C210.3,63.8,209.7,63.7,209.3,63.4z"></path>
<path class="st1" d="M215.1,54h4.1v1.2h-2.3V58h1.8v1.2h-1.8v3.2h2.3v1.2h-4.1V54z"></path>
<path class="st1" d="M220.2,54h1.8v8.5h2.4v1.2h-4.1V54z"></path>
<path class="st1" d="M225.6,63.1c-0.4-0.5-0.7-1.2-0.7-2.2l1.5-0.3c0,0.6,0.1,1.1,0.3,1.4c0.2,0.3,0.4,0.5,0.8,0.5
c0.3,0,0.5-0.1,0.6-0.2c0.1-0.2,0.2-0.4,0.2-0.7c0-0.4-0.1-0.7-0.3-1c-0.2-0.3-0.4-0.6-0.8-0.9l-1.2-1.1c-0.4-0.3-0.7-0.7-0.8-1
c-0.2-0.4-0.3-0.8-0.3-1.3c0-0.8,0.2-1.3,0.7-1.8c0.4-0.4,1.1-0.6,1.8-0.6c0.8,0,1.4,0.2,1.8,0.7c0.4,0.5,0.6,1.1,0.6,1.9
l-1.5,0.3c0-0.5-0.1-0.9-0.2-1.2c-0.1-0.3-0.4-0.4-0.7-0.4c-0.3,0-0.5,0.1-0.6,0.3c-0.1,0.2-0.2,0.4-0.2,0.6
c0,0.3,0.1,0.6,0.2,0.8c0.1,0.2,0.3,0.4,0.6,0.7l1.2,1.1c0.5,0.4,0.8,0.8,1.1,1.3c0.3,0.4,0.4,1,0.4,1.6c0,0.5-0.1,0.9-0.3,1.2
c-0.2,0.4-0.5,0.6-0.9,0.8c-0.4,0.2-0.8,0.3-1.3,0.3C226.7,63.8,226,63.6,225.6,63.1z"></path>
</g>
</g>
</svg>